<?xml version="1.0" encoding="UTF-8" standalone="no"?> <svg xmlns="http://www.w3.org/2000/svg" viewBox="0 0 32 32"><defs><style>.cls-1{fill:#307e45;}.cls-2{fill:#4fb15c;}.cls-3{fill:#9adc8e;}.cls-4{fill:#4872cd;}.cls-5{fill:#3b57bc;}.cls-6{fill:#2b439c;}.cls-7{fill:#428ee3;}.cls-8{fill:#97d8ff;}.cls-9{fill:#203275;}.cls-10{fill:#fff;}.cls-11{fill:#dcdcdc;}.cls-12{fill:#182658;}.cls-13{fill:#53baff;}.cls-14{fill:aqua;}.cls-15{fill:#9ff;}</style></defs><title>strawberry cold</title><g id="strawberry_cold" data-name="strawberry cold"><path class="cls-1" d="M21.86,4.49a1,1,0,0,0-1.37-.35L17.55,5.91a3.76,3.76,0,0,1-.55.23V3a1,1,0,0,0-2,0V6.14a3.65,3.65,0,0,1-.54-.23L11.52,4.14a1,1,0,1,0-1,1.72l2.94,1.76a4.95,4.95,0,0,0,5.14,0l2.95-1.76A1,1,0,0,0,21.86,4.49Z"/><path class="cls-2" d="M18.06,7.77a1,1,0,0,1-.86-.49,1,1,0,0,1,.35-1.37l2.94-1.77a1,1,0,0,1,1,1.72L18.57,7.62A1,1,0,0,1,18.06,7.77Z"/><path class="cls-2" d="M13.94,7.77a1,1,0,0,1-.51-.15L10.49,5.86a1,1,0,1,1,1-1.72l2.94,1.77a1,1,0,0,1,.34,1.37A1,1,0,0,1,13.94,7.77Z"/><path class="cls-3" d="M20.33,6.4a1,1,0,0,1-.85-.48,1,1,0,0,1,.34-1.38l.67-.4a1,1,0,0,1,1,1.72l-.67.4A1.07,1.07,0,0,1,20.33,6.4Z"/><path class="cls-3" d="M11.63,6.38a1.06,1.06,0,0,1-.51-.14l-.63-.38a1,1,0,1,1,1-1.72l.63.38a1,1,0,0,1-.52,1.86Z"/><path class="cls-4" d="M27,17a1.89,1.89,0,0,1-.11.25c-.65,1.36-1.3,2.61-1.93,3.75-3.33,6-6.35,9-9,9-1.53,0-3.17-1-4.94-3a30.51,30.51,0,0,1-2.87-4c-.39-.62-.78-1.29-1.17-2-.64-1.14-1.29-2.39-1.94-3.75A2.72,2.72,0,0,1,5,17a6.94,6.94,0,0,1-.55-2,7.08,7.08,0,0,1,.75-4A6.71,6.71,0,0,1,6,9.76a5,5,0,0,1,.49-.54l.37-.34a4.87,4.87,0,0,1,4.14-1,4.26,4.26,0,0,1,.7.19l.36.14L14,9a5.07,5.07,0,0,0,4,0l1.92-.85a5,5,0,0,1,5.2.71A7,7,0,0,1,27,17Z"/><path class="cls-5" d="M18,13a2,2,0,0,1-2,2H4.42a7.08,7.08,0,0,1,.75-4H16A2,2,0,0,1,18,13Z"/><path class="cls-5" d="M22,19a2,2,0,0,1-2,2H7c-.64-1.14-1.29-2.39-1.94-3.75A2.72,2.72,0,0,1,5,17H20A2,2,0,0,1,22,19Z"/><path class="cls-5" d="M19,25a2,2,0,0,1-2,2H11.06a30.51,30.51,0,0,1-2.87-4H17A2,2,0,0,1,19,25Z"/><circle class="cls-5" cx="21.5" cy="13.5" r="0.5"/><circle class="cls-5" cx="22.5" cy="10.5" r="0.5"/><circle class="cls-5" cx="19.5" cy="11.5" r="0.5"/><circle class="cls-5" cx="24.5" cy="13.5" r="0.5"/><circle class="cls-5" cx="23.5" cy="20.5" r="0.5"/><circle class="cls-5" cx="20.5" cy="23.5" r="0.5"/><circle class="cls-5" cx="23.5" cy="16.5" r="0.5"/><circle class="cls-6" cx="15.5" cy="12.5" r="0.5"/><circle class="cls-6" cx="9.5" cy="19.5" r="0.5"/><circle class="cls-6" cx="14.5" cy="18.5" r="0.5"/><circle class="cls-6" cx="19.5" cy="18.5" r="0.5"/><path class="cls-6" d="M16,30c-3.15,0-6.82-4.29-10.92-12.75A7,7,0,0,1,6.86,8.88a1,1,0,0,1,1.3,1.53,5,5,0,0,0-1.28,6C12,26.87,15,28,16,28a1,1,0,0,1,0,2Z"/><path class="cls-7" d="M26,17.81a1,1,0,0,1-.43-.1,1,1,0,0,1-.47-1.33,5,5,0,0,0-1.27-6,3,3,0,0,0-3.1-.41l-1.93.85A1,1,0,0,1,18,9L20,8.17a5,5,0,0,1,5.19.71,7,7,0,0,1,1.78,8.37A1,1,0,0,1,26,17.81Z"/><path class="cls-8" d="M24.49,10.64a1,1,0,0,1-.64-.23,3,3,0,0,0-3.1-.41,1,1,0,0,1-1.32-.51A1,1,0,0,1,20,8.17a5,5,0,0,1,5.19.71,1,1,0,0,1,.12,1.41A1,1,0,0,1,24.49,10.64Z"/><path class="cls-8" d="M26.42,13.7a1,1,0,0,1-1-.74c-.05-.16-.09-.32-.15-.47a1,1,0,1,1,1.87-.69c.08.21.15.42.21.64a1,1,0,0,1-.71,1.23A1.15,1.15,0,0,1,26.42,13.7Z"/><path class="cls-9" d="M6.47,18.81a1,1,0,0,1-.89-.55l-.5-1a1,1,0,0,1,1.8-.88c.16.33.32.66.49,1a1,1,0,0,1-.9,1.45Z"/><path class="cls-9" d="M10.87,26.18a1,1,0,0,1-.8-.4A40.63,40.63,0,0,1,7,21a1,1,0,0,1,1.75-1,40.48,40.48,0,0,0,2.9,4.57,1,1,0,0,1-.19,1.4A1,1,0,0,1,10.87,26.18Z"/><path class="cls-10" d="M14,20h4a2,2,0,0,1,2,2v0a0,0,0,0,1,0,0H12a0,0,0,0,1,0,0v0a2,2,0,0,1,2-2Z"/><path class="cls-11" d="M12,22h8a0,0,0,0,1,0,0v0a2,2,0,0,1-2,2H14a2,2,0,0,1-2-2v0a0,0,0,0,1,0,0Z"/><path class="cls-12" d="M18,19H14a3,3,0,0,0,0,6h4a2.59,2.59,0,0,0,.63-.07,2.26,2.26,0,0,0,.37-.11A3,3,0,0,0,18,19Zm1,3.23a.81.81,0,0,1-.11.27A1,1,0,0,1,18,23H14a1,1,0,0,1,0-2h4a1,1,0,0,1,1,1Z"/><ellipse class="cls-12" cx="20" cy="15.5" rx="1" ry="1.5"/><ellipse class="cls-12" cx="12" cy="15.5" rx="1" ry="1.5"/><path class="cls-13" d="M11,7.84V13a1,1,0,0,1-2,0v3.5a1.5,1.5,0,0,1-3,0V9.76a5,5,0,0,1,.49-.54l.37-.34A4.87,4.87,0,0,1,11,7.84Z"/><path class="cls-14" d="M11,7.84V10a1,1,0,0,1-2,0v3.5a1.5,1.5,0,0,1-3,0V9.76a5,5,0,0,1,.49-.54l.37-.34A4.87,4.87,0,0,1,11,7.84Z"/><path class="cls-13" d="M19,23v6a1,1,0,0,1-2,0V27.5a.5.5,0,0,1-1,0V23h2a1,1,0,0,0,.86-.5A1,1,0,0,1,19,23Z"/><path class="cls-14" d="M19,22v4a1,1,0,0,1-2,0V24.5a.5.5,0,0,1-1,0V23h2a1,1,0,0,0,.86-.5.81.81,0,0,0,.11-.27Z"/><path class="cls-15" d="M8,12a1,1,0,0,1-1-1V10a1,1,0,0,1,2,0v1A1,1,0,0,1,8,12Z"/><path class="cls-15" d="M18.5,25.5A.5.5,0,0,1,18,25V24a.5.5,0,0,1,1,0v1A.5.5,0,0,1,18.5,25.5Z"/></g></svg>